<svg id="Outline" xmlns="http://www.w3.org/2000/svg" width="40" height="40" viewBox="0 0 40 40">
  <defs>
    <style>
      .cls-1 {
        fill: none;
        
      }
    </style>
  </defs>
  <g>
    <rect class="cls-1" width="40" height="40"/>
    <g>
      <path fill="#ddd" d="M31,21a1,1,0,0,0-2,0,9,9,0,0,1-18,0,1,1,0,0,0-2,0A11.011,11.011,0,0,0,19.01013,31.94989C19.00922,31.96747,19,31.98224,19,32v2H15a1,1,0,0,0,0,2H25a1,1,0,0,0,0-2H21V32c0-.01776-.00922-.03253-.01013-.05011A11.011,11.011,0,0,0,31,21Z"/>
      <path fill="#ddd" d="M20,28a7.00848,7.00848,0,0,1-7-7V11a7,7,0,0,1,14,0V21A7.00848,7.00848,0,0,1,20,28ZM20,6a5.00588,5.00588,0,0,0-5,5V21a5,5,0,0,0,10,0V11A5.00588,5.00588,0,0,0,20,6Z"/>
    </g>
  </g>
</svg>
